<?xml version="1.0" encoding="UTF-8"?>
<svg width="750pt" height="750pt" version="1.1" viewBox="0 0 752 752" xmlns="http://www.w3.org/2000/svg">
 <g fill="#ff814a">
  <path d="m547.37 487.64-79.641 45.508-81.062 46.93v-58.309l55.465-32.711 54.043-31.289 51.199 29.867zm-9.957 0-41.242-24.176-105.24 59.734v48.355l146.48-83.906zm-176.35 83.906v-48.355l-105.24-59.734-41.242 24.176 146.48 83.906zm-162.12-110.93 41.242-24.176v-120.88l-41.242-24.176v169.24zm15.645-194.84 41.242 22.754 105.24-59.734v-48.355l-73.953 42.664-72.531 42.664zm176.35-85.328v48.355l105.24 59.734 41.242-22.754-146.48-85.328zm162.12 110.93-41.242 24.176v120.88l41.242 24.176v-169.24zm-187.73 288.7-79.641-46.93-81.062-45.508 51.199-29.867 55.465 31.289 54.043 32.711v58.309zm-170.66-110.93v-186.3l51.199 29.867v126.57zm9.957-203.37 81.062-46.93 79.641-46.93v59.73l-54.043 31.289-55.465 31.289-51.199-28.441zm182.04-93.863 81.062 46.93 79.641 46.93-51.199 28.441-54.043-31.289-55.465-31.289v-59.73zm172.08 110.93v186.3l-51.199-29.867v-126.57z" fill-rule="evenodd"/>
  <path d="m483.38 450.66-48.355 27.02-48.355 28.441v-11.379l42.664-25.598 44.086-24.176 9.957 5.6875zm-118.04 55.465-48.355-28.441-46.93-27.02 8.5312-5.6875 44.086 24.176 42.664 25.598v11.379zm-106.66-73.953v-110.93l9.957 5.6875v99.555zm11.379-129.42 46.93-28.441 48.355-27.02v11.379l-42.664 24.176-44.086 25.598-8.5312-5.6875zm116.62-55.465 48.355 27.02 48.355 28.441-9.957 5.6875-44.086-25.598-42.664-24.176v-11.379zm106.66 73.953v110.93l-9.957-5.6875v-99.555z"/>
 </g>
</svg>
